<mxfile host="65bd71144e">
    <diagram id="vJ1m-05t7oFOnyErlR1Q" name="Page-1">
        <mxGraphModel dx="646" dy="669" grid="1" gridSize="10" guides="1" tooltips="1" connect="1" arrows="1" fold="1" page="1" pageScale="1" pageWidth="10000" pageHeight="10000" math="0" shadow="0">
            <root>
                <mxCell id="0"/>
                <mxCell id="1" parent="0"/>
                <mxCell id="2" value="Federate" style="swimlane;fontStyle=1;align=center;verticalAlign=top;childLayout=stackLayout;horizontal=1;startSize=26;horizontalStack=0;resizeParent=1;resizeParentMax=0;resizeLast=0;collapsible=1;marginBottom=0;" parent="1" vertex="1">
                    <mxGeometry x="310" y="150" width="430" height="590" as="geometry"/>
                </mxCell>
                <mxCell id="3" value="+ hfed: HelicsFederate = None&#10;+ mddb: MongoDatabase = None&#10;+ config: dict = None&#10;+ scenario: dict = None&#10;+ federation: dict = None&#10;+ federation_name: str = None&#10;+ federate: dict = None&#10;+ federate_type: str= None&#10;+ federate_name: str = fed_name&#10;+ start: datetime = None&#10;+ stop: datetime = None&#10;+ time_step: float = -1.0&#10;+ stop_time: float = -1.0&#10;+ granted_time: float = -1.0&#10;+ next_requested_time: float = -1.0&#10;+ pubs: dict&#10;+ inputs: dict&#10;+ endpoints: dict&#10;+ debug: bool&#10;+ data_from_federation = {&quot;inputs&quot;: {}, &quot;endpoints&quot;: {}}&#10;+ data_to_federation = {&quot;publications&quot;: {}, &quot;endpoints&quot;: {}}&#10;&#10;&#10;" style="text;strokeColor=none;fillColor=#FFFFFF;align=left;verticalAlign=top;spacingLeft=4;spacingRight=4;overflow=hidden;rotatable=0;points=[[0,0.5],[1,0.5]];portConstraint=eastwest;fontColor=#000000;labelBackgroundColor=#ffffff;" parent="2" vertex="1">
                    <mxGeometry y="26" width="430" height="334" as="geometry"/>
                </mxCell>
                <mxCell id="4" value="" style="line;strokeWidth=1;fillColor=none;align=left;verticalAlign=middle;spacingTop=-1;spacingLeft=3;spacingRight=3;rotatable=0;labelPosition=right;points=[];portConstraint=eastwest;strokeColor=inherit;" parent="2" vertex="1">
                    <mxGeometry y="360" width="430" height="8" as="geometry"/>
                </mxCell>
                <mxCell id="5" value="+Â connect_to_metadataDB(self, uri: str, db_name: str): None&#10;+ connect_to_helics_config(self): None&#10;+ create_federate(self, scenario_name: str): None&#10;+ create_helics_fed(self): None&#10;+ run_cosim_loop(self): None&#10;+ enter_initialization(self): None&#10;+ enter_executing_mode(self): None&#10;+ simulate_next_step(self): None&#10;+ calculate_next_requested_time(self): float&#10;+ request_time(self, requested_time: float): float&#10;+ get_data_from_federateion(self): None&#10;+ update_internal_model(self): None&#10;+ send_data_to_federation(self): None&#10;+ destroy_federation(self): None" style="text;strokeColor=none;fillColor=#FFFFFF;align=left;verticalAlign=top;spacingLeft=4;spacingRight=4;overflow=hidden;rotatable=0;points=[[0,0.5],[1,0.5]];portConstraint=eastwest;fontColor=#000000;labelBackgroundColor=#ffffff;" parent="2" vertex="1">
                    <mxGeometry y="368" width="430" height="222" as="geometry"/>
                </mxCell>
            </root>
        </mxGraphModel>
    </diagram>
</mxfile>